<svg width="24" height="24" viewBox="0 0 24 24" fill="none" xmlns="http://www.w3.org/2000/svg">
<path d="M8.08794 9.71094H5.08594V18.7419H8.08794V9.71094Z" fill="#231F20"/>
<path d="M6.5887 8.47791H6.56898C5.70645 8.52993 4.96506 7.87288 4.91304 7.01034C4.86102 6.14781 5.51807 5.40642 6.38061 5.3544C6.45658 5.34982 6.53278 5.35079 6.6086 5.35729C7.47077 5.29485 8.22032 5.94314 8.28277 6.80531C8.34522 7.66748 7.69693 8.41703 6.83476 8.47948C6.75283 8.48541 6.67055 8.48489 6.5887 8.47791ZM18.9132 18.7418H15.9117V13.911C15.9117 12.6968 15.4771 11.8687 14.3911 11.8687C13.6974 11.8728 13.0809 12.3122 12.8508 12.9667C12.774 13.2029 12.7405 13.451 12.752 13.699V18.7418H9.75044C9.75044 18.7391 9.78981 10.5581 9.75075 9.71101H12.7523V10.991C13.3054 10.0283 14.3482 9.45321 15.4576 9.49913C17.4325 9.49913 18.9132 10.7899 18.9132 13.5638V18.7418Z" fill="#231F20"/>
<path d="M20.4677 2.00011H3.53143C2.73034 1.99047 2.07287 2.6317 2.0625 3.43279V20.5679C2.07293 21.3689 2.7304 22.01 3.53143 22.0001H20.4677C21.2689 22.0101 21.9265 21.3688 21.9366 20.5677V3.43279C21.9264 2.63164 21.2689 1.99034 20.4677 2.00011ZM8.08758 18.7421H5.08557V9.71111H8.08758V18.7421ZM6.83282 8.47966C6.75085 8.48558 6.66858 8.4851 6.58673 8.47814H6.56701C5.70447 8.53014 4.96307 7.8731 4.91107 7.01055C4.85907 6.148 5.51611 5.40661 6.37866 5.35461C6.45459 5.35003 6.53082 5.35101 6.60663 5.35748C7.46881 5.29504 8.21832 5.94336 8.28082 6.80554C8.34326 7.66765 7.69494 8.41722 6.83282 8.47966ZM18.9113 18.7421H15.9097V13.9112C15.9097 12.697 15.4751 11.8689 14.3891 11.8689C13.6954 11.873 13.0789 12.3124 12.8489 12.967C12.772 13.2031 12.7385 13.4512 12.75 13.6993V18.7421H9.74847C9.74847 18.7394 9.78784 10.5583 9.74878 9.71123H12.7503V10.9912C13.3035 10.0285 14.3463 9.45342 15.4556 9.49932C17.4305 9.49932 18.9113 10.7901 18.9113 13.564V18.7421H18.9113Z" fill="#05DBF3"/>
</svg>
