<svg width="24" height="24" viewBox="0 0 24 24" fill="none" xmlns="http://www.w3.org/2000/svg">
<path d="M20.4732 7.80515C20.4835 7.99023 20.4835 8.17532 20.4835 8.35015C20.4809 9.48882 20.3147 10.6212 19.9899 11.7126C19.3055 14.2277 17.8029 16.4431 15.7192 18.0091C13.6356 19.5751 11.0897 20.4025 8.48347 20.3604C6.18922 20.363 3.94313 19.7024 2.01562 18.4581C2.34993 18.4995 2.68647 18.5201 3.02332 18.5198C4.92176 18.5216 6.76549 17.8841 8.25733 16.71C7.37864 16.6935 6.52698 16.4033 5.82104 15.8798C5.11509 15.3564 4.59003 14.6257 4.31901 13.7897C4.58063 13.8345 4.84539 13.8586 5.11081 13.8617C5.48979 13.8631 5.86708 13.8112 6.23159 13.7075C5.32916 13.5288 4.51037 13.0587 3.90104 12.3695C3.29171 11.6803 2.92555 10.8101 2.85882 9.89254C2.84173 9.7872 2.83483 9.68045 2.83824 9.57378V9.52236C3.42426 9.84855 4.08037 10.0285 4.75081 10.0468C4.17376 9.66215 3.70087 9.14066 3.37434 8.52884C3.0478 7.91702 2.87777 7.2339 2.87941 6.54039C2.87867 5.79365 3.07366 5.05975 3.44495 4.41185C4.50396 5.71671 5.82592 6.7839 7.32475 7.54395C8.82358 8.30399 10.4657 8.73985 12.1441 8.82314C11.9318 7.91833 12.0241 6.9687 12.4069 6.12177C12.7897 5.27485 13.4414 4.57803 14.2609 4.13957C15.0804 3.70111 16.0217 3.54555 16.9387 3.69706C17.8557 3.84856 18.6969 4.29864 19.3318 4.97739C20.2786 4.79054 21.1864 4.44274 22.0156 3.94911C22.0513 4.665 21.932 5.38016 21.6658 6.04567C21.3996 6.71118 20.9928 7.31135 20.4732 7.80515Z" fill="#05DBF3"/>
</svg>
